<mxfile host="app.diagrams.net" modified="2023-09-11T17:02:40.883Z" agent="Mozilla/5.0 (Windows NT 10.0; Win64; x64) AppleWebKit/537.36 (KHTML, like Gecko) Chrome/116.0.0.0 Safari/537.36" etag="LP2qxzZ5tu9KrUlxPiiG" version="21.7.4" type="google">
  <diagram name="Page-1" id="5d7acffa-a066-3a61-03fe-96351882024d">
    <mxGraphModel grid="1" page="1" gridSize="10" guides="1" tooltips="1" connect="1" arrows="1" fold="1" pageScale="1" pageWidth="1100" pageHeight="850" background="#ffffff" math="0" shadow="1">
      <root>
        <mxCell id="0" />
        <mxCell id="1" parent="0" />
        <mxCell id="21ea969265ad0168-14" value="User" style="swimlane;html=1;fontStyle=1;childLayout=stackLayout;horizontal=1;startSize=26;fillColor=#7EA6E0;horizontalStack=0;resizeParent=1;resizeLast=0;collapsible=1;marginBottom=0;swimlaneFillColor=default;align=center;rounded=0;shadow=1;comic=0;labelBackgroundColor=none;strokeWidth=1;fontFamily=Verdana;fontSize=12;strokeColor=#6c8ebf;glass=1;labelBorderColor=none;fillStyle=solid;gradientColor=none;" vertex="1" parent="1">
          <mxGeometry x="60" y="170" width="160" height="208" as="geometry" />
        </mxCell>
        <mxCell id="21ea969265ad0168-15" value="user_id" style="text;html=1;strokeColor=#d79b00;fillColor=#ffe6cc;spacingLeft=4;spacingRight=4;whiteSpace=wrap;overflow=hidden;rotatable=0;points=[[0,0.5],[1,0.5]];portConstraint=eastwest;align=left;fontFamily=Verdana;labelBackgroundColor=none;fontSize=12;fontStyle=0;labelBorderColor=none;" vertex="1" parent="21ea969265ad0168-14">
          <mxGeometry y="26" width="160" height="26" as="geometry" />
        </mxCell>
        <mxCell id="21ea969265ad0168-16" value="user_firstname" style="text;html=1;spacingLeft=4;spacingRight=4;whiteSpace=wrap;overflow=hidden;rotatable=0;points=[[0,0.5],[1,0.5]];portConstraint=eastwest;fillColor=#d5e8d4;strokeColor=#82b366;align=left;fontFamily=Verdana;labelBackgroundColor=none;fontSize=12;fontStyle=0" vertex="1" parent="21ea969265ad0168-14">
          <mxGeometry y="52" width="160" height="26" as="geometry" />
        </mxCell>
        <mxCell id="21ea969265ad0168-17" value="user_lastname" style="text;html=1;strokeColor=#d79b00;fillColor=#ffe6cc;spacingLeft=4;spacingRight=4;whiteSpace=wrap;overflow=hidden;rotatable=0;points=[[0,0.5],[1,0.5]];portConstraint=eastwest;align=left;fontFamily=Verdana;labelBackgroundColor=none;fontSize=12;fontStyle=0" vertex="1" parent="21ea969265ad0168-14">
          <mxGeometry y="78" width="160" height="26" as="geometry" />
        </mxCell>
        <mxCell id="mRDUdVk5xAwT44k07RZq-11" value="user_email" style="text;html=1;strokeColor=#82b366;fillColor=#d5e8d4;spacingLeft=4;spacingRight=4;whiteSpace=wrap;overflow=hidden;rotatable=0;points=[[0,0.5],[1,0.5]];portConstraint=eastwest;align=left;fontFamily=Verdana;labelBackgroundColor=none;fontSize=12;fontStyle=0" vertex="1" parent="21ea969265ad0168-14">
          <mxGeometry y="104" width="160" height="26" as="geometry" />
        </mxCell>
        <mxCell id="mRDUdVk5xAwT44k07RZq-12" value="user_password" style="text;html=1;strokeColor=#d79b00;fillColor=#ffe6cc;spacingLeft=4;spacingRight=4;whiteSpace=wrap;overflow=hidden;rotatable=0;points=[[0,0.5],[1,0.5]];portConstraint=eastwest;align=left;fontFamily=Verdana;labelBackgroundColor=none;fontSize=12;fontStyle=0" vertex="1" parent="21ea969265ad0168-14">
          <mxGeometry y="130" width="160" height="26" as="geometry" />
        </mxCell>
        <mxCell id="mRDUdVk5xAwT44k07RZq-13" value="user_address" style="text;html=1;strokeColor=#82b366;fillColor=#d5e8d4;spacingLeft=4;spacingRight=4;whiteSpace=wrap;overflow=hidden;rotatable=0;points=[[0,0.5],[1,0.5]];portConstraint=eastwest;align=left;fontFamily=Verdana;labelBackgroundColor=none;fontSize=12;fontStyle=0" vertex="1" parent="21ea969265ad0168-14">
          <mxGeometry y="156" width="160" height="26" as="geometry" />
        </mxCell>
        <mxCell id="mRDUdVk5xAwT44k07RZq-14" value="is_active" style="text;html=1;strokeColor=#d79b00;fillColor=#ffe6cc;spacingLeft=4;spacingRight=4;whiteSpace=wrap;overflow=hidden;rotatable=0;points=[[0,0.5],[1,0.5]];portConstraint=eastwest;align=left;fontFamily=Verdana;labelBackgroundColor=none;fontSize=12;fontStyle=0" vertex="1" parent="21ea969265ad0168-14">
          <mxGeometry y="182" width="160" height="26" as="geometry" />
        </mxCell>
        <mxCell id="mRDUdVk5xAwT44k07RZq-15" value="Category" style="swimlane;html=1;fontStyle=1;childLayout=stackLayout;horizontal=1;startSize=26;fillColor=#7EA6E0;horizontalStack=0;resizeParent=1;resizeLast=0;collapsible=1;marginBottom=0;swimlaneFillColor=#ffffff;align=center;rounded=0;shadow=1;comic=0;labelBackgroundColor=none;strokeWidth=1;fontFamily=Verdana;fontSize=12;strokeColor=#6c8ebf;glass=1;labelBorderColor=none;fillStyle=solid;" vertex="1" parent="1">
          <mxGeometry x="320" y="170" width="160" height="130" as="geometry" />
        </mxCell>
        <mxCell id="mRDUdVk5xAwT44k07RZq-16" value="category_id" style="text;html=1;strokeColor=#d79b00;fillColor=#ffe6cc;spacingLeft=4;spacingRight=4;whiteSpace=wrap;overflow=hidden;rotatable=0;points=[[0,0.5],[1,0.5]];portConstraint=eastwest;align=left;fontFamily=Verdana;labelBackgroundColor=none;fontSize=12;fontStyle=0" vertex="1" parent="mRDUdVk5xAwT44k07RZq-15">
          <mxGeometry y="26" width="160" height="26" as="geometry" />
        </mxCell>
        <mxCell id="mRDUdVk5xAwT44k07RZq-17" value="category_name" style="text;html=1;spacingLeft=4;spacingRight=4;whiteSpace=wrap;overflow=hidden;rotatable=0;points=[[0,0.5],[1,0.5]];portConstraint=eastwest;fillColor=#d5e8d4;strokeColor=#82b366;align=left;fontFamily=Verdana;labelBackgroundColor=none;fontSize=12;fontStyle=0" vertex="1" parent="mRDUdVk5xAwT44k07RZq-15">
          <mxGeometry y="52" width="160" height="26" as="geometry" />
        </mxCell>
        <mxCell id="mRDUdVk5xAwT44k07RZq-18" value="category_description" style="text;html=1;strokeColor=#d79b00;fillColor=#ffe6cc;spacingLeft=4;spacingRight=4;whiteSpace=wrap;overflow=hidden;rotatable=0;points=[[0,0.5],[1,0.5]];portConstraint=eastwest;align=left;fontFamily=Verdana;labelBackgroundColor=none;fontSize=12;fontStyle=0" vertex="1" parent="mRDUdVk5xAwT44k07RZq-15">
          <mxGeometry y="78" width="160" height="26" as="geometry" />
        </mxCell>
        <mxCell id="mRDUdVk5xAwT44k07RZq-19" value="is_active" style="text;html=1;strokeColor=#82b366;fillColor=#d5e8d4;spacingLeft=4;spacingRight=4;whiteSpace=wrap;overflow=hidden;rotatable=0;points=[[0,0.5],[1,0.5]];portConstraint=eastwest;align=left;fontFamily=Verdana;labelBackgroundColor=none;fontSize=12;fontStyle=0" vertex="1" parent="mRDUdVk5xAwT44k07RZq-15">
          <mxGeometry y="104" width="160" height="26" as="geometry" />
        </mxCell>
        <mxCell id="mRDUdVk5xAwT44k07RZq-23" value="Sub_category" style="swimlane;html=1;fontStyle=1;childLayout=stackLayout;horizontal=1;startSize=26;fillColor=#7EA6E0;horizontalStack=0;resizeParent=1;resizeLast=0;collapsible=1;marginBottom=0;swimlaneFillColor=default;align=center;rounded=0;shadow=1;comic=0;labelBackgroundColor=none;strokeWidth=1;fontFamily=Verdana;fontSize=12;strokeColor=#6c8ebf;glass=1;labelBorderColor=none;fillStyle=solid;gradientColor=none;" vertex="1" parent="1">
          <mxGeometry x="570" y="170" width="160" height="156" as="geometry" />
        </mxCell>
        <mxCell id="mRDUdVk5xAwT44k07RZq-24" value="sub_category_id" style="text;html=1;strokeColor=#d79b00;fillColor=#ffe6cc;spacingLeft=4;spacingRight=4;whiteSpace=wrap;overflow=hidden;rotatable=0;points=[[0,0.5],[1,0.5]];portConstraint=eastwest;align=left;fontFamily=Verdana;labelBackgroundColor=none;fontSize=12;fontStyle=0;labelBorderColor=none;" vertex="1" parent="mRDUdVk5xAwT44k07RZq-23">
          <mxGeometry y="26" width="160" height="26" as="geometry" />
        </mxCell>
        <mxCell id="mRDUdVk5xAwT44k07RZq-25" value="sub_category_name" style="text;html=1;spacingLeft=4;spacingRight=4;whiteSpace=wrap;overflow=hidden;rotatable=0;points=[[0,0.5],[1,0.5]];portConstraint=eastwest;fillColor=#d5e8d4;strokeColor=#82b366;align=left;fontFamily=Verdana;labelBackgroundColor=none;fontSize=12;fontStyle=0" vertex="1" parent="mRDUdVk5xAwT44k07RZq-23">
          <mxGeometry y="52" width="160" height="26" as="geometry" />
        </mxCell>
        <mxCell id="mRDUdVk5xAwT44k07RZq-27" value="&lt;span style=&quot;color: rgb(0, 0, 0); font-family: Verdana; font-size: 12px; font-style: normal; font-variant-ligatures: normal; font-variant-caps: normal; font-weight: 400; letter-spacing: normal; orphans: 2; text-align: left; text-indent: 0px; text-transform: none; widows: 2; word-spacing: 0px; -webkit-text-stroke-width: 0px; text-decoration-thickness: initial; text-decoration-style: initial; text-decoration-color: initial; float: none; display: inline !important;&quot;&gt;sub_category_description&lt;/span&gt;" style="text;html=1;strokeColor=#d79b00;fillColor=#ffe6cc;spacingLeft=4;spacingRight=4;whiteSpace=wrap;overflow=hidden;rotatable=0;points=[[0,0.5],[1,0.5]];portConstraint=eastwest;align=left;fontFamily=Verdana;labelBackgroundColor=none;fontSize=12;fontStyle=0" vertex="1" parent="mRDUdVk5xAwT44k07RZq-23">
          <mxGeometry y="78" width="160" height="26" as="geometry" />
        </mxCell>
        <mxCell id="mRDUdVk5xAwT44k07RZq-28" value="is_active" style="text;html=1;strokeColor=#82b366;fillColor=#d5e8d4;spacingLeft=4;spacingRight=4;whiteSpace=wrap;overflow=hidden;rotatable=0;points=[[0,0.5],[1,0.5]];portConstraint=eastwest;align=left;fontFamily=Verdana;labelBackgroundColor=none;fontSize=12;fontStyle=0" vertex="1" parent="mRDUdVk5xAwT44k07RZq-23">
          <mxGeometry y="104" width="160" height="26" as="geometry" />
        </mxCell>
        <mxCell id="mRDUdVk5xAwT44k07RZq-47" value="category_id" style="text;html=1;strokeColor=#d79b00;fillColor=#ffe6cc;spacingLeft=4;spacingRight=4;whiteSpace=wrap;overflow=hidden;rotatable=0;points=[[0,0.5],[1,0.5]];portConstraint=eastwest;align=left;fontFamily=Verdana;labelBackgroundColor=none;fontSize=12;fontStyle=0" vertex="1" parent="mRDUdVk5xAwT44k07RZq-23">
          <mxGeometry y="130" width="160" height="26" as="geometry" />
        </mxCell>
        <mxCell id="mRDUdVk5xAwT44k07RZq-31" value="Sub_child_category" style="swimlane;html=1;fontStyle=1;childLayout=stackLayout;horizontal=1;startSize=26;fillColor=#7EA6E0;horizontalStack=0;resizeParent=1;resizeLast=0;collapsible=1;marginBottom=0;swimlaneFillColor=default;align=center;rounded=0;shadow=1;comic=0;labelBackgroundColor=none;strokeWidth=1;fontFamily=Verdana;fontSize=12;strokeColor=#6c8ebf;glass=1;labelBorderColor=none;fillStyle=solid;gradientColor=none;" vertex="1" parent="1">
          <mxGeometry x="830" y="170" width="210" height="156" as="geometry" />
        </mxCell>
        <mxCell id="mRDUdVk5xAwT44k07RZq-32" value="sub_child_category_id" style="text;html=1;strokeColor=#d79b00;fillColor=#ffe6cc;spacingLeft=4;spacingRight=4;whiteSpace=wrap;overflow=hidden;rotatable=0;points=[[0,0.5],[1,0.5]];portConstraint=eastwest;align=left;fontFamily=Verdana;labelBackgroundColor=none;fontSize=12;fontStyle=0;labelBorderColor=none;" vertex="1" parent="mRDUdVk5xAwT44k07RZq-31">
          <mxGeometry y="26" width="210" height="26" as="geometry" />
        </mxCell>
        <mxCell id="mRDUdVk5xAwT44k07RZq-33" value="&lt;span style=&quot;color: rgb(0, 0, 0); font-family: Verdana; font-size: 12px; font-style: normal; font-variant-ligatures: normal; font-variant-caps: normal; font-weight: 400; letter-spacing: normal; orphans: 2; text-align: left; text-indent: 0px; text-transform: none; widows: 2; word-spacing: 0px; -webkit-text-stroke-width: 0px; text-decoration-thickness: initial; text-decoration-style: initial; text-decoration-color: initial; float: none; display: inline !important;&quot;&gt;sub_child_category_name&lt;/span&gt;" style="text;html=1;spacingLeft=4;spacingRight=4;whiteSpace=wrap;overflow=hidden;rotatable=0;points=[[0,0.5],[1,0.5]];portConstraint=eastwest;fillColor=#d5e8d4;strokeColor=#82b366;align=left;fontFamily=Verdana;labelBackgroundColor=none;fontSize=12;fontStyle=0" vertex="1" parent="mRDUdVk5xAwT44k07RZq-31">
          <mxGeometry y="52" width="210" height="26" as="geometry" />
        </mxCell>
        <mxCell id="mRDUdVk5xAwT44k07RZq-34" value="sub_child_category_description" style="text;html=1;strokeColor=#d79b00;fillColor=#ffe6cc;spacingLeft=4;spacingRight=4;whiteSpace=wrap;overflow=hidden;rotatable=0;points=[[0,0.5],[1,0.5]];portConstraint=eastwest;align=left;fontFamily=Verdana;labelBackgroundColor=none;fontSize=12;fontStyle=0" vertex="1" parent="mRDUdVk5xAwT44k07RZq-31">
          <mxGeometry y="78" width="210" height="26" as="geometry" />
        </mxCell>
        <mxCell id="mRDUdVk5xAwT44k07RZq-35" value="is_active" style="text;html=1;strokeColor=#82b366;fillColor=#d5e8d4;spacingLeft=4;spacingRight=4;whiteSpace=wrap;overflow=hidden;rotatable=0;points=[[0,0.5],[1,0.5]];portConstraint=eastwest;align=left;fontFamily=Verdana;labelBackgroundColor=none;fontSize=12;fontStyle=0" vertex="1" parent="mRDUdVk5xAwT44k07RZq-31">
          <mxGeometry y="104" width="210" height="26" as="geometry" />
        </mxCell>
        <mxCell id="mRDUdVk5xAwT44k07RZq-48" value="sub_category_id" style="text;html=1;strokeColor=#d79b00;fillColor=#ffe6cc;spacingLeft=4;spacingRight=4;whiteSpace=wrap;overflow=hidden;rotatable=0;points=[[0,0.5],[1,0.5]];portConstraint=eastwest;align=left;fontFamily=Verdana;labelBackgroundColor=none;fontSize=12;fontStyle=0" vertex="1" parent="mRDUdVk5xAwT44k07RZq-31">
          <mxGeometry y="130" width="210" height="26" as="geometry" />
        </mxCell>
        <mxCell id="mRDUdVk5xAwT44k07RZq-39" value="Product" style="swimlane;html=1;fontStyle=1;childLayout=stackLayout;horizontal=1;startSize=26;fillColor=#7EA6E0;horizontalStack=0;resizeParent=1;resizeLast=0;collapsible=1;marginBottom=0;swimlaneFillColor=default;align=center;rounded=0;shadow=1;comic=0;labelBackgroundColor=none;strokeWidth=1;fontFamily=Verdana;fontSize=12;strokeColor=#6c8ebf;glass=1;labelBorderColor=none;fillStyle=solid;gradientColor=none;" vertex="1" parent="1">
          <mxGeometry x="60" y="440" width="160" height="182" as="geometry" />
        </mxCell>
        <mxCell id="mRDUdVk5xAwT44k07RZq-40" value="product_id" style="text;html=1;strokeColor=#d79b00;fillColor=#ffe6cc;spacingLeft=4;spacingRight=4;whiteSpace=wrap;overflow=hidden;rotatable=0;points=[[0,0.5],[1,0.5]];portConstraint=eastwest;align=left;fontFamily=Verdana;labelBackgroundColor=none;fontSize=12;fontStyle=0;labelBorderColor=none;" vertex="1" parent="mRDUdVk5xAwT44k07RZq-39">
          <mxGeometry y="26" width="160" height="26" as="geometry" />
        </mxCell>
        <mxCell id="mRDUdVk5xAwT44k07RZq-41" value="product_name" style="text;html=1;spacingLeft=4;spacingRight=4;whiteSpace=wrap;overflow=hidden;rotatable=0;points=[[0,0.5],[1,0.5]];portConstraint=eastwest;fillColor=#d5e8d4;strokeColor=#82b366;align=left;fontFamily=Verdana;labelBackgroundColor=none;fontSize=12;fontStyle=0" vertex="1" parent="mRDUdVk5xAwT44k07RZq-39">
          <mxGeometry y="52" width="160" height="26" as="geometry" />
        </mxCell>
        <mxCell id="mRDUdVk5xAwT44k07RZq-42" value="sub_child_category_id" style="text;html=1;strokeColor=#d79b00;fillColor=#ffe6cc;spacingLeft=4;spacingRight=4;whiteSpace=wrap;overflow=hidden;rotatable=0;points=[[0,0.5],[1,0.5]];portConstraint=eastwest;align=left;fontFamily=Verdana;labelBackgroundColor=none;fontSize=12;fontStyle=0" vertex="1" parent="mRDUdVk5xAwT44k07RZq-39">
          <mxGeometry y="78" width="160" height="26" as="geometry" />
        </mxCell>
        <mxCell id="mRDUdVk5xAwT44k07RZq-43" value="product_description" style="text;html=1;strokeColor=#82b366;fillColor=#d5e8d4;spacingLeft=4;spacingRight=4;whiteSpace=wrap;overflow=hidden;rotatable=0;points=[[0,0.5],[1,0.5]];portConstraint=eastwest;align=left;fontFamily=Verdana;labelBackgroundColor=none;fontSize=12;fontStyle=0" vertex="1" parent="mRDUdVk5xAwT44k07RZq-39">
          <mxGeometry y="104" width="160" height="26" as="geometry" />
        </mxCell>
        <mxCell id="mRDUdVk5xAwT44k07RZq-44" value="product_price" style="text;html=1;strokeColor=#d79b00;fillColor=#ffe6cc;spacingLeft=4;spacingRight=4;whiteSpace=wrap;overflow=hidden;rotatable=0;points=[[0,0.5],[1,0.5]];portConstraint=eastwest;align=left;fontFamily=Verdana;labelBackgroundColor=none;fontSize=12;fontStyle=0" vertex="1" parent="mRDUdVk5xAwT44k07RZq-39">
          <mxGeometry y="130" width="160" height="26" as="geometry" />
        </mxCell>
        <mxCell id="mRDUdVk5xAwT44k07RZq-46" value="is_active" style="text;html=1;strokeColor=#82b366;fillColor=#d5e8d4;spacingLeft=4;spacingRight=4;whiteSpace=wrap;overflow=hidden;rotatable=0;points=[[0,0.5],[1,0.5]];portConstraint=eastwest;align=left;fontFamily=Verdana;labelBackgroundColor=none;fontSize=12;fontStyle=0" vertex="1" parent="mRDUdVk5xAwT44k07RZq-39">
          <mxGeometry y="156" width="160" height="26" as="geometry" />
        </mxCell>
        <mxCell id="mRDUdVk5xAwT44k07RZq-49" value="Cart" style="swimlane;html=1;fontStyle=1;childLayout=stackLayout;horizontal=1;startSize=26;fillColor=#7EA6E0;horizontalStack=0;resizeParent=1;resizeLast=0;collapsible=1;marginBottom=0;swimlaneFillColor=default;align=center;rounded=0;shadow=1;comic=0;labelBackgroundColor=none;strokeWidth=1;fontFamily=Verdana;fontSize=12;strokeColor=#6c8ebf;glass=1;labelBorderColor=none;fillStyle=solid;gradientColor=none;" vertex="1" parent="1">
          <mxGeometry x="330" y="510" width="160" height="156" as="geometry" />
        </mxCell>
        <mxCell id="mRDUdVk5xAwT44k07RZq-50" value="cart_id" style="text;html=1;strokeColor=#d79b00;fillColor=#ffe6cc;spacingLeft=4;spacingRight=4;whiteSpace=wrap;overflow=hidden;rotatable=0;points=[[0,0.5],[1,0.5]];portConstraint=eastwest;align=left;fontFamily=Verdana;labelBackgroundColor=none;fontSize=12;fontStyle=0;labelBorderColor=none;" vertex="1" parent="mRDUdVk5xAwT44k07RZq-49">
          <mxGeometry y="26" width="160" height="26" as="geometry" />
        </mxCell>
        <mxCell id="mRDUdVk5xAwT44k07RZq-51" value="user_id" style="text;html=1;spacingLeft=4;spacingRight=4;whiteSpace=wrap;overflow=hidden;rotatable=0;points=[[0,0.5],[1,0.5]];portConstraint=eastwest;fillColor=#d5e8d4;strokeColor=#82b366;align=left;fontFamily=Verdana;labelBackgroundColor=none;fontSize=12;fontStyle=0" vertex="1" parent="mRDUdVk5xAwT44k07RZq-49">
          <mxGeometry y="52" width="160" height="26" as="geometry" />
        </mxCell>
        <mxCell id="mRDUdVk5xAwT44k07RZq-52" value="product_id" style="text;html=1;strokeColor=#d79b00;fillColor=#ffe6cc;spacingLeft=4;spacingRight=4;whiteSpace=wrap;overflow=hidden;rotatable=0;points=[[0,0.5],[1,0.5]];portConstraint=eastwest;align=left;fontFamily=Verdana;labelBackgroundColor=none;fontSize=12;fontStyle=0" vertex="1" parent="mRDUdVk5xAwT44k07RZq-49">
          <mxGeometry y="78" width="160" height="26" as="geometry" />
        </mxCell>
        <mxCell id="mRDUdVk5xAwT44k07RZq-53" value="cart_quantity" style="text;html=1;strokeColor=#82b366;fillColor=#d5e8d4;spacingLeft=4;spacingRight=4;whiteSpace=wrap;overflow=hidden;rotatable=0;points=[[0,0.5],[1,0.5]];portConstraint=eastwest;align=left;fontFamily=Verdana;labelBackgroundColor=none;fontSize=12;fontStyle=0" vertex="1" parent="mRDUdVk5xAwT44k07RZq-49">
          <mxGeometry y="104" width="160" height="26" as="geometry" />
        </mxCell>
        <mxCell id="mRDUdVk5xAwT44k07RZq-54" value="is_active" style="text;html=1;strokeColor=#d79b00;fillColor=#ffe6cc;spacingLeft=4;spacingRight=4;whiteSpace=wrap;overflow=hidden;rotatable=0;points=[[0,0.5],[1,0.5]];portConstraint=eastwest;align=left;fontFamily=Verdana;labelBackgroundColor=none;fontSize=12;fontStyle=0" vertex="1" parent="mRDUdVk5xAwT44k07RZq-49">
          <mxGeometry y="130" width="160" height="26" as="geometry" />
        </mxCell>
        <mxCell id="mRDUdVk5xAwT44k07RZq-56" value="Orders" style="swimlane;html=1;fontStyle=1;childLayout=stackLayout;horizontal=1;startSize=26;fillColor=#7EA6E0;horizontalStack=0;resizeParent=1;resizeLast=0;collapsible=1;marginBottom=0;swimlaneFillColor=default;align=center;rounded=0;shadow=1;comic=0;labelBackgroundColor=none;strokeWidth=1;fontFamily=Verdana;fontSize=12;strokeColor=#6c8ebf;glass=1;labelBorderColor=none;fillStyle=solid;gradientColor=none;" vertex="1" parent="1">
          <mxGeometry x="590" y="470" width="160" height="160" as="geometry" />
        </mxCell>
        <mxCell id="mRDUdVk5xAwT44k07RZq-57" value="order_id" style="text;html=1;strokeColor=#d79b00;fillColor=#ffe6cc;spacingLeft=4;spacingRight=4;whiteSpace=wrap;overflow=hidden;rotatable=0;points=[[0,0.5],[1,0.5]];portConstraint=eastwest;align=left;fontFamily=Verdana;labelBackgroundColor=none;fontSize=12;fontStyle=0;labelBorderColor=none;" vertex="1" parent="mRDUdVk5xAwT44k07RZq-56">
          <mxGeometry y="26" width="160" height="26" as="geometry" />
        </mxCell>
        <mxCell id="mRDUdVk5xAwT44k07RZq-58" value="cart_id" style="text;html=1;spacingLeft=4;spacingRight=4;whiteSpace=wrap;overflow=hidden;rotatable=0;points=[[0,0.5],[1,0.5]];portConstraint=eastwest;fillColor=#d5e8d4;strokeColor=#82b366;align=left;fontFamily=Verdana;labelBackgroundColor=none;fontSize=12;fontStyle=0" vertex="1" parent="mRDUdVk5xAwT44k07RZq-56">
          <mxGeometry y="52" width="160" height="26" as="geometry" />
        </mxCell>
        <mxCell id="mRDUdVk5xAwT44k07RZq-60" value="order_quantity" style="text;html=1;strokeColor=#82b366;fillColor=#d5e8d4;spacingLeft=4;spacingRight=4;whiteSpace=wrap;overflow=hidden;rotatable=0;points=[[0,0.5],[1,0.5]];portConstraint=eastwest;align=left;fontFamily=Verdana;labelBackgroundColor=none;fontSize=12;fontStyle=0" vertex="1" parent="mRDUdVk5xAwT44k07RZq-56">
          <mxGeometry y="78" width="160" height="26" as="geometry" />
        </mxCell>
        <mxCell id="mRDUdVk5xAwT44k07RZq-61" value="order_amount" style="text;html=1;strokeColor=#d79b00;fillColor=#ffe6cc;spacingLeft=4;spacingRight=4;whiteSpace=wrap;overflow=hidden;rotatable=0;points=[[0,0.5],[1,0.5]];portConstraint=eastwest;align=left;fontFamily=Verdana;labelBackgroundColor=none;fontSize=12;fontStyle=0" vertex="1" parent="mRDUdVk5xAwT44k07RZq-56">
          <mxGeometry y="104" width="160" height="26" as="geometry" />
        </mxCell>
        <mxCell id="mRDUdVk5xAwT44k07RZq-62" value="order_status" style="text;html=1;strokeColor=#82b366;fillColor=#d5e8d4;spacingLeft=4;spacingRight=4;whiteSpace=wrap;overflow=hidden;rotatable=0;points=[[0,0.5],[1,0.5]];portConstraint=eastwest;align=left;fontFamily=Verdana;labelBackgroundColor=none;fontSize=12;fontStyle=0" vertex="1" parent="mRDUdVk5xAwT44k07RZq-56">
          <mxGeometry y="130" width="160" height="26" as="geometry" />
        </mxCell>
        <mxCell id="mRDUdVk5xAwT44k07RZq-64" value="Payment" style="swimlane;html=1;fontStyle=1;childLayout=stackLayout;horizontal=1;startSize=26;fillColor=#7EA6E0;horizontalStack=0;resizeParent=1;resizeLast=0;collapsible=1;marginBottom=0;swimlaneFillColor=default;align=center;rounded=0;shadow=1;comic=0;labelBackgroundColor=none;strokeWidth=1;fontFamily=Verdana;fontSize=12;strokeColor=#6c8ebf;glass=1;labelBorderColor=none;fillStyle=solid;gradientColor=none;" vertex="1" parent="1">
          <mxGeometry x="830" y="440" width="160" height="182" as="geometry" />
        </mxCell>
        <mxCell id="mRDUdVk5xAwT44k07RZq-65" value="payment_id" style="text;html=1;strokeColor=#d79b00;fillColor=#ffe6cc;spacingLeft=4;spacingRight=4;whiteSpace=wrap;overflow=hidden;rotatable=0;points=[[0,0.5],[1,0.5]];portConstraint=eastwest;align=left;fontFamily=Verdana;labelBackgroundColor=none;fontSize=12;fontStyle=0;labelBorderColor=none;" vertex="1" parent="mRDUdVk5xAwT44k07RZq-64">
          <mxGeometry y="26" width="160" height="26" as="geometry" />
        </mxCell>
        <mxCell id="mRDUdVk5xAwT44k07RZq-66" value="user_id" style="text;html=1;spacingLeft=4;spacingRight=4;whiteSpace=wrap;overflow=hidden;rotatable=0;points=[[0,0.5],[1,0.5]];portConstraint=eastwest;fillColor=#d5e8d4;strokeColor=#82b366;align=left;fontFamily=Verdana;labelBackgroundColor=none;fontSize=12;fontStyle=0" vertex="1" parent="mRDUdVk5xAwT44k07RZq-64">
          <mxGeometry y="52" width="160" height="26" as="geometry" />
        </mxCell>
        <mxCell id="mRDUdVk5xAwT44k07RZq-67" value="order_id" style="text;html=1;strokeColor=#d79b00;fillColor=#ffe6cc;spacingLeft=4;spacingRight=4;whiteSpace=wrap;overflow=hidden;rotatable=0;points=[[0,0.5],[1,0.5]];portConstraint=eastwest;align=left;fontFamily=Verdana;labelBackgroundColor=none;fontSize=12;fontStyle=0" vertex="1" parent="mRDUdVk5xAwT44k07RZq-64">
          <mxGeometry y="78" width="160" height="26" as="geometry" />
        </mxCell>
        <mxCell id="mRDUdVk5xAwT44k07RZq-68" value="payment_method" style="text;html=1;strokeColor=#82b366;fillColor=#d5e8d4;spacingLeft=4;spacingRight=4;whiteSpace=wrap;overflow=hidden;rotatable=0;points=[[0,0.5],[1,0.5]];portConstraint=eastwest;align=left;fontFamily=Verdana;labelBackgroundColor=none;fontSize=12;fontStyle=0" vertex="1" parent="mRDUdVk5xAwT44k07RZq-64">
          <mxGeometry y="104" width="160" height="26" as="geometry" />
        </mxCell>
        <mxCell id="mRDUdVk5xAwT44k07RZq-69" value="transaction_id" style="text;html=1;strokeColor=#d79b00;fillColor=#ffe6cc;spacingLeft=4;spacingRight=4;whiteSpace=wrap;overflow=hidden;rotatable=0;points=[[0,0.5],[1,0.5]];portConstraint=eastwest;align=left;fontFamily=Verdana;labelBackgroundColor=none;fontSize=12;fontStyle=0" vertex="1" parent="mRDUdVk5xAwT44k07RZq-64">
          <mxGeometry y="130" width="160" height="26" as="geometry" />
        </mxCell>
        <mxCell id="mRDUdVk5xAwT44k07RZq-70" value="payment_status" style="text;html=1;strokeColor=#82b366;fillColor=#d5e8d4;spacingLeft=4;spacingRight=4;whiteSpace=wrap;overflow=hidden;rotatable=0;points=[[0,0.5],[1,0.5]];portConstraint=eastwest;align=left;fontFamily=Verdana;labelBackgroundColor=none;fontSize=12;fontStyle=0" vertex="1" parent="mRDUdVk5xAwT44k07RZq-64">
          <mxGeometry y="156" width="160" height="26" as="geometry" />
        </mxCell>
        <mxCell id="mRDUdVk5xAwT44k07RZq-71" style="edgeStyle=orthogonalEdgeStyle;hachureGap=4;orthogonalLoop=1;jettySize=auto;html=1;exitX=1;exitY=0.5;exitDx=0;exitDy=0;entryX=0;entryY=0.5;entryDx=0;entryDy=0;fontFamily=Architects Daughter;fontSource=https%3A%2F%2Ffonts.googleapis.com%2Fcss%3Ffamily%3DArchitects%2BDaughter;fontSize=16;shadow=0;shape=link;rounded=0;" edge="1" parent="1" source="mRDUdVk5xAwT44k07RZq-16" target="mRDUdVk5xAwT44k07RZq-47">
          <mxGeometry relative="1" as="geometry" />
        </mxCell>
        <mxCell id="mRDUdVk5xAwT44k07RZq-72" style="edgeStyle=orthogonalEdgeStyle;hachureGap=4;orthogonalLoop=1;jettySize=auto;html=1;exitX=1;exitY=0.5;exitDx=0;exitDy=0;entryX=0;entryY=0.5;entryDx=0;entryDy=0;fontFamily=Architects Daughter;fontSource=https%3A%2F%2Ffonts.googleapis.com%2Fcss%3Ffamily%3DArchitects%2BDaughter;fontSize=16;shape=link;rounded=0;" edge="1" parent="1" source="mRDUdVk5xAwT44k07RZq-24" target="mRDUdVk5xAwT44k07RZq-48">
          <mxGeometry relative="1" as="geometry" />
        </mxCell>
        <mxCell id="mRDUdVk5xAwT44k07RZq-77" style="edgeStyle=orthogonalEdgeStyle;hachureGap=4;orthogonalLoop=1;jettySize=auto;html=1;exitX=0;exitY=0.5;exitDx=0;exitDy=0;entryX=1;entryY=0.5;entryDx=0;entryDy=0;fontFamily=Architects Daughter;fontSource=https%3A%2F%2Ffonts.googleapis.com%2Fcss%3Ffamily%3DArchitects%2BDaughter;fontSize=16;shape=link;rounded=0;" edge="1" parent="1" source="mRDUdVk5xAwT44k07RZq-52" target="mRDUdVk5xAwT44k07RZq-40">
          <mxGeometry relative="1" as="geometry" />
        </mxCell>
        <mxCell id="mRDUdVk5xAwT44k07RZq-78" style="edgeStyle=orthogonalEdgeStyle;shape=link;rounded=0;hachureGap=4;orthogonalLoop=1;jettySize=auto;html=1;exitX=0;exitY=0.5;exitDx=0;exitDy=0;labelBackgroundColor=default;strokeColor=default;fontFamily=Architects Daughter;fontSource=https%3A%2F%2Ffonts.googleapis.com%2Fcss%3Ffamily%3DArchitects%2BDaughter;fontSize=16;fontColor=default;endArrow=classic;entryX=1;entryY=0.5;entryDx=0;entryDy=0;" edge="1" parent="1" source="mRDUdVk5xAwT44k07RZq-51" target="21ea969265ad0168-15">
          <mxGeometry relative="1" as="geometry">
            <mxPoint x="260" y="280" as="targetPoint" />
            <Array as="points">
              <mxPoint x="250" y="575" />
              <mxPoint x="250" y="209" />
            </Array>
          </mxGeometry>
        </mxCell>
        <mxCell id="mRDUdVk5xAwT44k07RZq-80" style="edgeStyle=orthogonalEdgeStyle;shape=link;rounded=0;hachureGap=4;orthogonalLoop=1;jettySize=auto;html=1;exitX=1;exitY=0.5;exitDx=0;exitDy=0;entryX=0;entryY=0.5;entryDx=0;entryDy=0;labelBackgroundColor=default;strokeColor=default;fontFamily=Architects Daughter;fontSource=https%3A%2F%2Ffonts.googleapis.com%2Fcss%3Ffamily%3DArchitects%2BDaughter;fontSize=16;fontColor=default;endArrow=classic;" edge="1" parent="1" source="mRDUdVk5xAwT44k07RZq-32" target="mRDUdVk5xAwT44k07RZq-42">
          <mxGeometry relative="1" as="geometry">
            <Array as="points">
              <mxPoint x="1060" y="209" />
              <mxPoint x="1060" y="400" />
              <mxPoint x="40" y="400" />
              <mxPoint x="40" y="531" />
            </Array>
          </mxGeometry>
        </mxCell>
        <mxCell id="mRDUdVk5xAwT44k07RZq-84" style="edgeStyle=orthogonalEdgeStyle;shape=link;rounded=0;hachureGap=4;orthogonalLoop=1;jettySize=auto;html=1;exitX=0;exitY=0.5;exitDx=0;exitDy=0;entryX=1;entryY=0.5;entryDx=0;entryDy=0;labelBackgroundColor=default;strokeColor=default;fontFamily=Architects Daughter;fontSource=https%3A%2F%2Ffonts.googleapis.com%2Fcss%3Ffamily%3DArchitects%2BDaughter;fontSize=16;fontColor=default;endArrow=classic;" edge="1" parent="1" source="mRDUdVk5xAwT44k07RZq-66" target="21ea969265ad0168-15">
          <mxGeometry relative="1" as="geometry">
            <Array as="points">
              <mxPoint x="800" y="505" />
              <mxPoint x="800" y="360" />
              <mxPoint x="290" y="360" />
              <mxPoint x="290" y="209" />
            </Array>
          </mxGeometry>
        </mxCell>
        <mxCell id="mRDUdVk5xAwT44k07RZq-85" style="edgeStyle=orthogonalEdgeStyle;shape=link;rounded=0;hachureGap=4;orthogonalLoop=1;jettySize=auto;html=1;exitX=1;exitY=0.5;exitDx=0;exitDy=0;entryX=0;entryY=0.5;entryDx=0;entryDy=0;labelBackgroundColor=default;strokeColor=default;fontFamily=Architects Daughter;fontSource=https%3A%2F%2Ffonts.googleapis.com%2Fcss%3Ffamily%3DArchitects%2BDaughter;fontSize=16;fontColor=default;endArrow=classic;" edge="1" parent="1" source="mRDUdVk5xAwT44k07RZq-57" target="mRDUdVk5xAwT44k07RZq-67">
          <mxGeometry relative="1" as="geometry" />
        </mxCell>
        <mxCell id="mRDUdVk5xAwT44k07RZq-87" style="edgeStyle=orthogonalEdgeStyle;shape=link;rounded=0;hachureGap=4;orthogonalLoop=1;jettySize=auto;html=1;exitX=1;exitY=0.5;exitDx=0;exitDy=0;labelBackgroundColor=default;strokeColor=default;fontFamily=Architects Daughter;fontSource=https%3A%2F%2Ffonts.googleapis.com%2Fcss%3Ffamily%3DArchitects%2BDaughter;fontSize=16;fontColor=default;endArrow=classic;" edge="1" parent="1" source="mRDUdVk5xAwT44k07RZq-50" target="mRDUdVk5xAwT44k07RZq-58">
          <mxGeometry relative="1" as="geometry" />
        </mxCell>
      </root>
    </mxGraphModel>
  </diagram>
</mxfile>
